<?xml version="1.0" encoding="utf-8"?>
<!-- Generator: Adobe Illustrator 17.0.0, SVG Export Plug-In . SVG Version: 6.00 Build 0)  -->
<!DOCTYPE svg PUBLIC "-//W3C//DTD SVG 1.1//EN" "http://www.w3.org/Graphics/SVG/1.1/DTD/svg11.dtd">
<svg version="1.1" id="Layer_1" xmlns="http://www.w3.org/2000/svg" xmlns:xlink="http://www.w3.org/1999/xlink" x="0px" y="0px"
	 width="1024px" height="1024px" viewBox="0 0 1024 1024" enable-background="new 0 0 1024 1024" xml:space="preserve">
<title  id="simpleicons-instagram-icon">Instagram icon</title>
<path fill="#000000" d="M512,0C372.907,0,355.541,0.64,300.928,3.072C246.4,5.632,209.28,14.208,176.64,26.88
	c-33.664,13.056-62.251,30.592-90.709,59.051S39.893,142.933,26.88,176.64C14.208,209.28,5.589,246.4,3.072,300.928
	C0.512,355.541,0,372.907,0,512s0.64,156.459,3.072,211.072c2.56,54.485,11.136,91.648,23.808,124.288
	c13.056,33.621,30.592,62.251,59.051,90.709c28.459,28.416,57.003,46.037,90.709,59.051c32.683,12.629,69.803,21.291,124.288,23.808
	c54.613,2.56,71.979,3.072,211.072,3.072s156.459-0.64,211.072-3.072c54.485-2.56,91.648-11.179,124.288-23.808
	c33.621-13.056,62.251-30.635,90.709-59.051c28.416-28.459,46.037-56.96,59.051-90.709c12.629-32.64,21.291-69.803,23.808-124.288
	c2.56-54.613,3.072-71.979,3.072-211.072s-0.64-156.459-3.072-211.072c-2.56-54.485-11.179-91.691-23.808-124.288
	c-13.056-33.664-30.635-62.251-59.051-90.709c-28.459-28.459-56.96-46.037-90.709-59.051C814.72,14.208,777.557,5.589,723.072,3.072
	C668.459,0.512,651.093,0,512,0z M512,92.16c136.661,0,152.96,0.683,206.933,3.029c49.92,2.347,77.013,10.624,95.019,17.707
	c23.979,9.259,40.96,20.352,58.965,38.229c17.877,17.92,28.971,34.944,38.229,58.923c6.997,18.005,15.36,45.099,17.621,95.019
	c2.432,54.016,2.987,70.229,2.987,206.933s-0.64,152.96-3.157,206.933c-2.603,49.92-10.923,77.013-17.963,95.019
	c-9.557,23.979-20.437,40.96-38.357,58.965c-17.877,17.877-35.157,28.971-58.88,38.229c-17.92,6.997-45.44,15.36-95.36,17.621
	c-54.357,2.432-70.357,2.987-207.317,2.987c-137.003,0-153.003-0.64-207.317-3.157c-49.963-2.603-77.483-10.923-95.403-17.963
	c-24.277-9.557-40.96-20.437-58.837-38.357c-17.963-17.877-29.44-35.157-38.4-58.88c-7.04-17.92-15.317-45.44-17.92-95.36
	c-1.92-53.76-2.603-70.357-2.603-206.677c0-136.363,0.683-153.003,2.603-207.403c2.603-49.92,10.88-77.397,17.92-95.317
	c8.96-24.32,20.437-40.96,38.4-58.923c17.877-17.877,34.56-29.397,58.837-38.315C225.92,104.32,252.843,96,302.763,93.44
	c54.4-1.92,70.4-2.56,207.317-2.56L512,92.16L512,92.16z M512,249.088c-145.28,0-262.912,117.76-262.912,262.912
	c0,145.28,117.76,262.912,262.912,262.912c145.28,0,262.912-117.76,262.912-262.912C774.912,366.72,657.152,249.088,512,249.088
	L512,249.088z M512,682.667c-94.293,0-170.667-76.373-170.667-170.667S417.707,341.333,512,341.333S682.667,417.707,682.667,512
	S606.293,682.667,512,682.667z M846.763,238.72c0,33.92-27.563,61.44-61.44,61.44c-33.92,0-61.44-27.563-61.44-61.44
	s27.563-61.397,61.44-61.397C819.157,177.28,846.763,204.843,846.763,238.72z"/>
</svg>
