<?xml version="1.0" encoding="utf-8"?>
<!-- Generator: Adobe Illustrator 17.0.0, SVG Export Plug-In . SVG Version: 6.00 Build 0)  -->
<!DOCTYPE svg PUBLIC "-//W3C//DTD SVG 1.1//EN" "http://www.w3.org/Graphics/SVG/1.1/DTD/svg11.dtd">
<svg version="1.1" id="Layer_1" xmlns="http://www.w3.org/2000/svg" xmlns:xlink="http://www.w3.org/1999/xlink" x="0px" y="0px"
	 width="1024px" height="1024px" viewBox="0 0 1024 1024" enable-background="new 0 0 1024 1024" xml:space="preserve">
<title  id="simpleicons-linkedin-icon">LinkedIn icon</title>
<g>
	<path fill="#000000" d="M568.107,668.203c0-80.292,15.21-157.949,114.794-157.949c98.081,0,99.532,91.846,99.532,163.217v299.293
		h191.001h0.054V634.936c0-165.797-35.793-293.167-229.32-293.167c-93.136,0-155.478,51.055-181.113,99.423h-2.473V357.3H377.106
		v615.461h191.001V668.203z"/>
	<rect x="65.614" y="357.302" fill="#000000" width="191.539" height="615.461"/>
	<path fill="#000000" d="M161.383,273.086c61.212,0,110.925-49.765,110.925-110.979c0-61.16-49.658-110.871-110.925-110.871
		c-61.428,0-110.871,49.712-110.871,110.871C50.511,223.321,99.901,273.086,161.383,273.086z"/>
</g>
</svg>
