<?xml version="1.0" encoding="utf-8"?>
<!-- Generator: Adobe Illustrator 17.0.0, SVG Export Plug-In . SVG Version: 6.00 Build 0)  -->
<!DOCTYPE svg PUBLIC "-//W3C//DTD SVG 1.1//EN" "http://www.w3.org/Graphics/SVG/1.1/DTD/svg11.dtd">
<svg version="1.1" id="Layer_1" xmlns="http://www.w3.org/2000/svg" xmlns:xlink="http://www.w3.org/1999/xlink" x="0px" y="0px"
	 width="1024px" height="1024px" viewBox="0 0 1024 1024" enable-background="new 0 0 1024 1024" xml:space="preserve">
<title  id="simpleicons-twitter-icon">Twitter icon</title>
<path fill="#000000" d="M1022.016,194.965c-37.76,16.597-78.08,27.904-120.533,33.067c43.264-26.069,76.544-67.157,92.288-116.181
	c-40.576,23.68-85.547,40.917-133.419,50.517c-38.229-40.917-92.715-66.517-153.216-66.517c-115.925,0-209.92,93.995-209.92,209.792
	c0,16.64,1.92,32.64,5.419,47.957c-174.507-8.235-329.173-92.032-432.683-218.709c-18.219,30.805-28.416,66.603-28.416,105.6
	c0,72.96,37.12,137.088,93.355,174.763c-34.432-1.109-66.816-10.581-95.061-26.283v2.603c0,101.76,72.235,186.624,168.363,205.952
	c-17.621,4.736-36.224,7.296-55.296,7.296c-13.397,0-26.24-1.28-39.083-3.669c26.923,83.328,104.32,144.085,196.437,145.792
	c-71.68,56.277-162.517,89.813-260.352,89.813c-16.64,0-33.237-0.981-49.92-2.859c93.397,59.477,203.435,94.251,322.432,94.251
	c386.304,0,597.291-319.829,597.291-596.736c0-8.917,0-17.92-0.64-26.88c41.003-29.397,76.8-66.56,104.96-108.715L1022.016,194.965
	L1022.016,194.965z"/>
</svg>
